<svg xmlns="http://www.w3.org/2000/svg" xmlns:xlink="http://www.w3.org/1999/xlink" version="1.1" x="0px" y="0px" viewBox="0 0 64 80" enable-background="new 0 0 64 64" xml:space="preserve"><g><g><path d="M43.097,44.905c0.918-1.492,1.541-3.178,1.793-4.985c2.347-0.41,4.14-2.451,4.14-4.913c0-2.414-1.721-4.435-4-4.898    v-3.125c0-7.168-5.832-13-13-13s-13,5.832-13,13v3.125c-2.279,0.464-4,2.484-4,4.898c0,2.462,1.793,4.503,4.14,4.913    c0.251,1.797,0.868,3.475,1.777,4.959c-5.435,2.636-9.826,8.091-11.922,14.946l1.912,0.584c1.849-6.048,5.591-10.901,10.23-13.407    l1.713,9.186c0.072,0.384,0.36,0.69,0.738,0.786c0.081,0.021,0.164,0.03,0.245,0.03c0.298,0,0.586-0.134,0.778-0.372l4.219-5.228    l2.167,8.834L31.999,60l0.988,0.151l1.312-8.546l4.057,5.026c0.192,0.238,0.48,0.372,0.778,0.372c0.081,0,0.164-0.01,0.245-0.03    c0.378-0.096,0.666-0.402,0.738-0.786l1.797-9.638c4.977,2.391,9.024,7.459,10.979,13.862l1.912-0.584    C52.73,53.027,48.427,47.597,43.097,44.905z M47.029,35.007c0,1.302-0.839,2.401-2,2.815v-5.631    C46.19,32.605,47.029,33.705,47.029,35.007z M32.029,15.983c6.065,0,11,4.935,11,11v11.136c0,0.695-0.072,1.373-0.196,2.033    c-0.091-0.09-0.215-0.146-0.353-0.146c-0.276,0-0.5,0.224-0.5,0.5s0.224,0.5,0.5,0.5c0.057,0,0.109-0.015,0.16-0.032    c-0.346,1.28-0.912,2.467-1.663,3.519c-0.008-0.27-0.226-0.486-0.497-0.486c-0.276,0-0.5,0.224-0.5,0.5s0.224,0.5,0.5,0.5    c0.047,0,0.09-0.015,0.133-0.026c-0.3,0.374-0.625,0.727-0.97,1.06c-0.052-0.019-0.105-0.033-0.163-0.033    c-0.276,0-0.5,0.224-0.5,0.5c0,0.04,0.014,0.074,0.022,0.111c-0.699,0.575-1.476,1.055-2.302,1.445    c-0.067-0.033-0.141-0.057-0.221-0.057c-0.225,0-0.408,0.151-0.471,0.355c-0.352,0.137-0.712,0.255-1.08,0.356    c0.031-0.065,0.051-0.136,0.051-0.212c0-0.276-0.224-0.5-0.5-0.5s-0.5,0.224-0.5,0.5c0,0.166,0.086,0.306,0.21,0.396    c-0.294,0.059-0.594,0.103-0.896,0.138l-0.593-0.091c0.164-0.082,0.279-0.247,0.279-0.443c0-0.276-0.224-0.5-0.5-0.5    s-0.5,0.224-0.5,0.5s0.224,0.5,0.5,0.5c0.072,0,0.14-0.017,0.202-0.044l-0.02,0.124c-0.211,0.012-0.42,0.032-0.634,0.032    c-0.518,0-1.022-0.049-1.521-0.118c0.263-0.015,0.473-0.228,0.473-0.494c0-0.276-0.224-0.5-0.5-0.5s-0.5,0.224-0.5,0.5    c0,0.158,0.077,0.293,0.191,0.384l-0.147,0.036c-0.366-0.067-0.725-0.152-1.077-0.255c0.019-0.053,0.033-0.106,0.033-0.165    c0-0.276-0.224-0.5-0.5-0.5c-0.221,0-0.401,0.145-0.468,0.342c-0.882-0.347-1.705-0.806-2.458-1.356    c0.239-0.037,0.426-0.235,0.426-0.485c0-0.276-0.224-0.5-0.5-0.5s-0.5,0.224-0.5,0.5c0,0.021,0.009,0.037,0.012,0.057    c-2.264-1.89-3.747-4.672-3.931-7.799c0.089,0.143,0.239,0.242,0.419,0.242c0.276,0,0.5-0.224,0.5-0.5s-0.224-0.5-0.5-0.5    c-0.195,0-0.36,0.115-0.442,0.278c-0.001-0.056-0.009-0.11-0.009-0.166V26.983C21.029,20.918,25.964,15.983,32.029,15.983z     M32.354,51.103l-0.58,3.778l-0.938-3.822c0.394,0.036,0.791,0.061,1.193,0.061C32.139,51.119,32.245,51.105,32.354,51.103z     M17.029,35.007c0-1.302,0.839-2.401,2-2.815v5.631C17.868,37.408,17.029,36.309,17.029,35.007z M24.448,53.687l-1.104-5.922    c1.143,1.03,2.463,1.861,3.917,2.437L24.448,53.687z M38.55,53.687l-2.571-3.186c1.258-0.401,2.429-0.993,3.488-1.735    L38.55,53.687z"/><path d="M34.273,43.3c-1.023,1.021-2.633,1.075-3.586,0.121l-1.414,1.414c0.621,0.621,1.39,1.009,2.202,1.173    c-0.273,0.003-0.495,0.225-0.495,0.499c0,0.276,0.224,0.5,0.5,0.5s0.5-0.224,0.5-0.5c0-0.239-0.171-0.429-0.395-0.479    c0.259,0.045,0.521,0.073,0.783,0.073c1.189,0,2.396-0.465,3.318-1.388L34.273,43.3z"/><path d="M27.276,30.715l1.414-1.414c-1.445-1.447-3.967-1.447-5.414,0l1.414,1.414C25.382,30.023,26.585,30.023,27.276,30.715z"/><path d="M40.273,28.52l1.414-1.414c-1.445-1.447-3.967-1.447-5.414,0l1.414,1.414C38.379,27.828,39.582,27.828,40.273,28.52z"/><circle cx="38.48" cy="33.507" r="1.5"/><circle cx="25.48" cy="33.507" r="1.5"/><circle cx="23.48" cy="38.507" r="0.5"/><circle cx="25.48" cy="38.507" r="0.5"/><circle cx="27.48" cy="38.507" r="0.5"/><circle cx="35.48" cy="38.507" r="0.5"/><circle cx="37.48" cy="38.507" r="0.5"/><circle cx="39.48" cy="38.507" r="0.5"/><circle cx="41.48" cy="38.507" r="0.5"/><circle cx="28.48" cy="40.507" r="0.5"/><circle cx="30.48" cy="40.507" r="0.5"/><circle cx="32.48" cy="40.507" r="0.5"/><circle cx="34.48" cy="40.507" r="0.5"/><circle cx="36.48" cy="40.507" r="0.5"/><circle cx="38.48" cy="40.507" r="0.5"/><circle cx="40.48" cy="40.507" r="0.5"/><circle cx="26.48" cy="40.507" r="0.5"/><circle cx="24.48" cy="40.507" r="0.5"/><circle cx="22.48" cy="40.507" r="0.5"/><circle cx="29.48" cy="42.507" r="0.5"/><circle cx="31.48" cy="42.507" r="0.5"/><circle cx="33.48" cy="42.507" r="0.5"/><circle cx="27.48" cy="42.507" r="0.5"/><circle cx="25.48" cy="42.507" r="0.5"/><circle cx="23.48" cy="42.507" r="0.5"/><circle cx="28.48" cy="44.507" r="0.5"/><circle cx="26.48" cy="44.507" r="0.5"/><circle cx="24.48" cy="44.507" r="0.5"/><circle cx="38.48" cy="44.507" r="0.5"/><circle cx="36.48" cy="44.507" r="0.5"/><circle cx="37.48" cy="46.507" r="0.5"/><circle cx="35.48" cy="46.507" r="0.5"/><circle cx="33.48" cy="46.507" r="0.5"/><circle cx="29.48" cy="46.507" r="0.5"/><circle cx="27.48" cy="46.507" r="0.5"/><circle cx="35.48" cy="42.507" r="0.5"/><circle cx="37.48" cy="42.507" r="0.5"/><circle cx="39.48" cy="42.507" r="0.5"/><circle cx="41.48" cy="42.507" r="0.5"/><path d="M31.979,40.007c1.654,0,3.001-1.346,3.001-3v-6h-2v6c0,0.552-0.449,1-1.001,1c-0.551,0-0.999-0.448-0.999-1v-6h-2v6    C28.98,38.661,30.326,40.007,31.979,40.007z"/></g></g></svg>