<svg xmlns="http://www.w3.org/2000/svg" xmlns:xlink="http://www.w3.org/1999/xlink" version="1.1" x="0px" y="0px" viewBox="0 0 64 80" enable-background="new 0 0 64 64" xml:space="preserve"><g><g><path d="M33.479,45.717c0.78-0.779,2.048-0.779,2.828,0l1.414-1.414c-1.56-1.561-4.097-1.561-5.656,0L33.479,45.717z"/><path d="M25.014,32.51c0,0.83,0.672,1.5,1.5,1.5c0.435,0,0.824-0.188,1.098-0.483l1.031,0.412l0.743-1.857l-5-2l-0.743,1.857    l1.428,0.571H25.014z"/><path d="M36.417,33.526c0.274,0.296,0.663,0.483,1.098,0.483c0.828,0,1.5-0.67,1.5-1.5h-0.057l1.428-0.571l-0.743-1.857l-5,2    l0.743,1.857L36.417,33.526z"/><path d="M54.971,59.715c-0.724-2.366-2.151-5.438-3.778-7.713c0.203-0.022,0.399-0.104,0.559-0.247    c0.312-0.28,0.417-0.727,0.261-1.116c-0.086-0.216-2.141-5.164-8.112-7.388c0.711-1.605,1.113-3.376,1.113-5.241l0,0v-25    c0-0.431-0.275-0.812-0.684-0.948c-0.408-0.138-0.858,0.004-1.116,0.349l-5.515,7.353c-4.879-2.074-9.552-0.688-11.357,0.018    l-5.528-7.37c-0.258-0.345-0.708-0.487-1.116-0.349c-0.408,0.136-0.684,0.518-0.684,0.948v25l0,0c0,1.874,0.407,3.652,1.124,5.263    c-5.925,2.234-7.967,7.151-8.053,7.366c-0.153,0.384-0.046,0.818,0.257,1.1c0.16,0.148,0.361,0.231,0.571,0.254    c-1.63,2.275-3.061,5.353-3.786,7.723l1.913,0.584c0.824-2.695,2.716-6.569,4.621-8.515c1.173,0.242,2.76,0.976,4.64,2.884    c1.44,1.46,3.798,2.091,6.036,2.344c0.808,1.763,3.005,2.998,5.663,2.998c2.651,0,4.844-1.229,5.657-2.985    c2.268-0.245,4.678-0.873,6.14-2.356c1.881-1.908,3.468-2.642,4.64-2.885c1.905,1.946,3.797,5.82,4.621,8.516L54.971,59.715z     M32.014,49.009c-5.728,0-10.441-4.401-10.949-9.999h8.121c0.413,1.164,1.524,2,2.828,2c1.304,0,2.417-0.836,2.83-2h8.121    C42.456,44.607,37.742,49.009,32.014,49.009z M25.214,21.609c0.289,0.386,0.813,0.511,1.245,0.296    c0.056-0.027,5.646-2.732,11.107-0.001c0.432,0.217,0.958,0.094,1.247-0.295l4.2-5.6v21h-9c-0.552,0-1,0.447-1,1    c0,0.552-0.449,1-1.001,1c-0.551,0-0.999-0.448-0.999-1c0-0.553-0.448-1-1-1h-9v-21L25.214,21.609z M29.053,57.167L29.053,57.167    c-0.161-0.111-0.307-0.231-0.436-0.357c0-0.001-0.001-0.001-0.001-0.002c-0.126-0.124-0.234-0.255-0.324-0.391    c-0.024-0.038-0.037-0.077-0.058-0.115c-0.06-0.104-0.118-0.209-0.154-0.318C28.03,55.829,28,55.672,28,55.51    c0-0.125,0.031-0.245,0.061-0.365l0,0c0.294-1.188,1.97-2.136,3.939-2.136c2.168,0,4,1.146,4,2.501    c0,0.162-0.03,0.319-0.079,0.474c-0.036,0.109-0.095,0.214-0.154,0.318c-0.021,0.038-0.034,0.077-0.058,0.115    c-0.09,0.136-0.198,0.267-0.324,0.391c0,0.001-0.001,0.001-0.001,0.002c-0.129,0.126-0.275,0.246-0.436,0.357h0    c-0.738,0.511-1.79,0.843-2.947,0.843S29.791,57.678,29.053,57.167z M42.372,53.264c-0.96,0.975-2.649,1.476-4.415,1.714    c-0.341-2.263-2.833-3.969-5.957-3.969c-3.117,0-5.604,1.698-5.954,3.955c-1.731-0.244-3.377-0.743-4.32-1.7    c-2.748-2.788-5.139-3.515-6.793-3.574c0.511-0.719,1.245-1.578,2.227-2.401c5.152,3.57,7.006,6.251,7.025,6.279l1.662-1.112    c-0.08-0.12-1.895-2.786-6.946-6.391c0.656-0.384,1.388-0.729,2.2-1.018c2.318,3.581,6.339,5.962,10.914,5.962    c4.583,0,8.611-2.391,10.927-5.983c0.835,0.292,1.584,0.646,2.256,1.039c-5.051,3.604-6.866,6.271-6.946,6.391l1.662,1.112    c0.019-0.028,1.873-2.709,7.025-6.279c0.982,0.823,1.716,1.683,2.227,2.401C47.511,49.749,45.12,50.476,42.372,53.264z"/><path d="M35.014,55.009h-2v-1l-1,1l-1-1v1h-2c0,0.92,0.933,1.685,2.197,1.919L32,57.717l0.781-0.781    C34.064,56.709,35.014,55.938,35.014,55.009z"/></g></g></svg>