<svg xmlns="http://www.w3.org/2000/svg" xmlns:xlink="http://www.w3.org/1999/xlink" version="1.1" x="0px" y="0px" viewBox="0 0 20 25" style="enable-background:new 0 0 20 20;" xml:space="preserve"><path d="M16,4h-1V2c0-0.6-0.4-1-1-1H2C1.4,1,1,1.4,1,2v14c0,1.7,1.3,3,3,3h8c1.7,0,3-1.3,3-3v-3.4l2.3-1.2c1-0.5,1.7-1.5,1.7-2.7V7  C19,5.3,17.7,4,16,4z M5,3v5c0,0.6,0.4,1,1,1s1-0.4,1-1V3h2v2c0,0.6,0.4,1,1,1s1-0.4,1-1V3h2v10H3V3H5z M12,17H4c-0.6,0-1-0.4-1-1  v-1h10v1C13,16.6,12.6,17,12,17z M17,8.8c0,0.4-0.2,0.7-0.6,0.9L15,10.4V6h1c0.6,0,1,0.4,1,1V8.8z"/></svg>