<svg xmlns="http://www.w3.org/2000/svg" xmlns:xlink="http://www.w3.org/1999/xlink" version="1.0" x="0px" y="0px" viewBox="0 0 50 62.5" enable-background="new 0 0 50 50" xml:space="preserve"><g><path d="M11.2,40.3c1.6,1.6,4.1,2.5,7.3,2.5h8c9.1,0,9.3-6.6,9.3-6.7v-2.3c1.7-0.2,3.1-0.9,4.1-2c2.1-2.2,1.9-5.4,1.9-5.5v-7.8   c0-0.7-0.6-1.2-1.2-1.2h-4.8v-1.6c0.3-0.1,0.6-0.4,0.7-0.8c0-0.1,0.8-2.9-0.8-5.1c-1.3-1.7-3.5-2.5-6.6-2.5H15.8   c-3.1,0-5.3,0.8-6.6,2.5c-1.7,2.2-0.9,5-0.8,5.1c0.1,0.4,0.5,0.7,0.9,0.8v20.4C9.3,36.2,9.3,38.4,11.2,40.3z M33.3,36.1   c0,0.2-0.2,4.2-6.8,4.2h-8c-6.4,0-6.7-3.7-6.7-4.2V15.8h21.5V36.1z M39.3,19.8l0,6.7c0,0,0.1,2.3-1.2,3.7c-0.6,0.6-1.3,1-2.3,1.2   V19.8H39.3z M11.3,11.3c0.7-1,2.3-1.5,4.6-1.5h13.3c2.2,0,3.8,0.5,4.6,1.5c0.5,0.6,0.6,1.4,0.6,2H10.7   C10.7,12.7,10.8,11.9,11.3,11.3z"/><path d="M22.5,18.8c-0.7,0-1.2,0.6-1.2,1.2v15c0,0.7,0.6,1.2,1.2,1.2s1.2-0.6,1.2-1.2V20C23.8,19.3,23.2,18.8,22.5,18.8z"/><path d="M28.5,18.8c-0.7,0-1.2,0.6-1.2,1.2v15c0,0.7,0.6,1.2,1.2,1.2s1.2-0.6,1.2-1.2V20C29.8,19.3,29.2,18.8,28.5,18.8z"/><path d="M16.5,18.8c-0.7,0-1.2,0.6-1.2,1.2v15c0,0.7,0.6,1.2,1.2,1.2s1.2-0.6,1.2-1.2V20C17.8,19.3,17.2,18.8,16.5,18.8z"/></g></svg>