<svg xmlns="http://www.w3.org/2000/svg" viewBox="0 0 36 85" x="0px" y="0px"><g fill="#000000" fill-rule="evenodd"><path d="M31.7322794,26 L34,26 C35.1045695,26 36,26.8954305 36,28 L36,52 C36,53.1045695 35.1045695,54 34,54 L32,54 L32,66 C32,67.1045695 31.1045695,68 30,68 C28.8954305,68 28,67.1045695 28,66 L28,54 L8,54 L8,66 C8,67.1045695 7.1045695,68 6,68 C4.8954305,68 4,67.1045695 4,66 L4,54 L2,54 C0.8954305,54 0,53.1045695 0,52 L0,28 C0,26.8954305 0.8954305,26 2,26 L4.26772059,26 C4.30732238,25.9315964 4.35139747,25.8648034 4.4,25.8 L10.4,17.8 C11.0627417,16.9163444 12.3163444,16.7372583 13.2,17.4 C14.0836556,18.0627417 14.2627417,19.3163444 13.6,20.2 L9.25,26 L26.75,26 L22.4,20.2 C21.7372583,19.3163444 21.9163444,18.0627417 22.8,17.4 C23.6836556,16.7372583 24.9372583,16.9163444 25.6,17.8 L31.6,25.8 C31.6486025,25.8648034 31.6926776,25.9315964 31.7322794,26 L31.7322794,26 Z M4,30 L4,50 L32,50 L32,30 L4,30 Z"/><path d="M20 59L20 66C20 67.1045695 20.8954305 68 22 68 23.1045695 68 24 67.1045695 24 66L24 59C24 57.8954305 23.1045695 57 22 57 20.8954305 57 20 57.8954305 20 59zM12 59L12 66C12 67.1045695 12.8954305 68 14 68 15.1045695 68 16 67.1045695 16 66L16 59C16 57.8954305 15.1045695 57 14 57 12.8954305 57 12 57.8954305 12 59zM20 9L20.0041738 9C23.3105336 9 26 11.6887762 26 15L26 19C26 20.1045695 25.1045695 21 24 21L12 21C10.8954305 21 10 20.1045695 10 19L10 15C10 11.6900481 12.6851569 9 15.9958262 9L16 9 16 2C16 .8954305 16.8954305 0 18 0 19.1045695 0 20 .8954305 20 2L20 9zM14 17L22 17 22 15C22 13.898145 21.1016244 13 20.0041738 13L15.9958262 13C14.8959272 13 14 13.8975592 14 15L14 17zM18 48C22.418278 48 26 44.418278 26 40 26 35.581722 22.418278 32 18 32 13.581722 32 10 35.581722 10 40 10 44.418278 13.581722 48 18 48zM18 44C15.790861 44 14 42.209139 14 40 14 37.790861 15.790861 36 18 36 20.209139 36 22 37.790861 22 40 22 42.209139 20.209139 44 18 44z"/></g></svg>