<svg xmlns="http://www.w3.org/2000/svg" xmlns:xlink="http://www.w3.org/1999/xlink" version="1.0" x="0px" y="0px" viewBox="0 0 50 62.5" enable-background="new 0 0 50 50" xml:space="preserve"><path d="M40.9,11.4c-0.9,0-1.6,0.3-2.2,1c-1.3,1.4-1.4,3.9-1.4,5.1L34.7,20c-2.2-0.8-4.7-1.2-7.5-1.2c-12,0-20.1,10.3-21.9,12.9H2.7  c-0.7,0-1.2,0.6-1.2,1.2s0.6,1.2,1.2,1.2h1.2l0.8,3.5c0.1,0.6,0.6,1,1.2,1h36.1c0.6,0,1.1-0.4,1.2-1l0.8-3.5h1.2  c0.7,0,1.2-0.6,1.2-1.2s-0.6-1.2-1.2-1.2h-2c-0.1-1.7-0.5-4.6-2.5-7.3l1.7-1.7c1.2,0,3.8-0.1,5.1-1.4c0.6-0.6,0.9-1.3,0.9-2.1  c0-1.5-0.9-2.9-2.8-4.9C43.7,12.2,42.3,11.4,40.9,11.4z M27.2,21.3c2.1,0,3.9,0.2,5.5,0.7l-3.6,3.6c-0.7-0.2-1.4-0.3-2.1-0.3  c-3.8,0-6.9,2.8-7.5,6.4h-11C11.3,28.2,18.1,21.3,27.2,21.3z M32,31.7H22c0.6-2.2,2.6-3.9,5-3.9C29.4,27.8,31.4,29.4,32,31.7z   M6.9,36.1l-0.4-2h14c0,0,0.1,0,0.1,0s0.1,0,0.1,0h12.6c0,0,0.1,0,0.1,0s0.1,0,0.1,0h8l-0.4,2H6.9z M40.8,31.7h-6.3  c0-0.3-0.1-0.6-0.2-0.8l4.7-4.7C40.4,28.2,40.7,30.4,40.8,31.7z M45.9,19.4c-0.6,0.6-2.7,0.8-3.8,0.7c-0.4,0-0.7,0.1-1,0.4l-7.9,7.9  c-0.5-0.6-1-1.2-1.7-1.7l4.4-4.4c0,0,0,0,0,0l3.5-3.5c0.3-0.3,0.4-0.6,0.4-1c-0.1-1.1,0.1-3.2,0.7-3.8c0.1-0.1,0.2-0.2,0.4-0.2  c0.4,0,1.3,0.4,3.1,2.1c1.4,1.4,2.1,2.5,2.1,3.2C46.1,19.3,46,19.3,45.9,19.4z"/></svg>