<svg xmlns="http://www.w3.org/2000/svg" xmlns:xlink="http://www.w3.org/1999/xlink" version="1.1" x="0px" y="0px" viewBox="0 0 20 25" style="enable-background:new 0 0 20 20;" xml:space="preserve"><path d="M18.7,5.7C19.3,5,18.9,4,18,4h-5.9l0.6-1.3l1.7-0.9c0.5-0.2,0.7-0.8,0.4-1.3S14-0.1,13.6,0.1l-2,1c-0.2,0.1-0.4,0.3-0.4,0.4  L9.9,4H2C1.1,4,0.7,5,1.3,5.7L9,13.9V18H5c-0.6,0-1,0.4-1,1s0.4,1,1,1h10c0.6,0,1-0.4,1-1s-0.4-1-1-1h-4v-4.1L18.7,5.7z M8.9,6  L8.1,7.6C7.9,8,8.1,8.6,8.6,8.9c0.5,0.2,1.1,0,1.3-0.4L11.1,6h4.6L10,12L4.3,6H8.9z"/></svg>