<svg xmlns="http://www.w3.org/2000/svg" xmlns:xlink="http://www.w3.org/1999/xlink" version="1.1" x="0px" y="0px" viewBox="0 0 64 80" enable-background="new 0 0 64 64" xml:space="preserve"><g><g><path d="M47.156,49.986c1.99-1.239,3.302-2.822,3.887-4.732c1.009-3.299-0.478-6.477-1.016-7.469    c0.416-4.632-1.418-7.771-3.396-9.775l4.065,1.294c0.102,0.032,0.203,0.047,0.304,0.047c0.424,0,0.817-0.271,0.953-0.696    c0.167-0.526-0.124-1.089-0.649-1.257l-7.564-2.407l2.079-6.534c0.026-0.051,0.049-0.105,0.067-0.162    c0.586-1.843,0.094-3.878-1.387-5.729c-1.388-1.734-3.506-3.12-5.963-3.9c-5.22-1.664-10.223-0.15-11.505,3.439    c-0.028,0.053-0.053,0.109-0.071,0.168l-2.223,6.983C21.75,20.094,14.073,23.625,14.001,37.8    c-0.575,1.396-3.462,9.246,1.774,13.514c-1.745,2.381-3.117,5.241-3.977,8.426l1.932,0.521c0.11-0.407,0.229-0.809,0.356-1.204    c0.716,0.167,2.44,0.5,4.922,0.5c5.514,0,14.674-1.671,24.318-10.505c3.172,2.517,5.655,6.464,6.935,11.214l1.932-0.52    C51.168,55.939,49.411,52.599,47.156,49.986z M48.15,38.532c0.02,0.03,1.906,3.135,0.976,6.149    c-0.473,1.53-1.616,2.81-3.387,3.822c-1.444-1.361-3.047-2.444-4.766-3.197c1.264-1.785,2.014-3.956,2.02-6.303H43V27.629    c2.062,1.241,5.669,4.297,5.006,10.265C47.981,38.115,48.033,38.342,48.15,38.532z M21,38.974h-0.005    c0,0.01,0.002,0.02,0.002,0.03c-1.102-0.002-1.997-0.898-1.997-2c0-1.103,0.897-2,2-2V38.974z M23,39.004v-4.015    c0.715-0.012,1.41-0.033,2.075-0.07c0.19,0.61,0.753,1.055,1.425,1.055c0.762,0,1.384-0.569,1.48-1.305    c7.282-0.868,11.074-3.272,13.02-5.295v9.6h-0.005c0,4.963-4.038,9-9.001,9c-4.952,0-8.98-4.021-8.997-8.97H23z M28.879,12.884    c0.813-2.556,4.957-3.616,9.051-2.312c2.086,0.662,3.864,1.814,5.008,3.243c1.007,1.26,1.389,2.577,1.084,3.729    c-0.021,0.045-0.041,0.092-0.057,0.142l-2.131,6.699l-11.077-3.525l0.207-0.649c0.767-2.414-0.328-4.978-2.474-6.147l0.326-1.026    C28.841,12.987,28.861,12.937,28.879,12.884z M27.861,16.036c1.097,0.789,1.627,2.212,1.196,3.566l-0.207,0.649l-2.116-0.674    L27.861,16.036z M15.914,38.409C15.971,38.281,16,38.143,16,38.004c0-13.145,6.688-16.155,9.182-16.821    c0.002,0.001,0.004,0.002,0.006,0.003l15.68,4.99c-0.713,1.533-4.233,6.828-18.867,6.828h-1c-2.206,0-4,1.794-4,4s1.794,4,4,4    h0.19c0.297,1.579,0.931,3.037,1.825,4.303c-2.216,0.972-4.243,2.491-5.982,4.447C12.615,46.083,15.879,38.488,15.914,38.409z     M14.79,57.156c2.044-4.939,5.477-8.672,9.565-10.25l-0.021-0.055c1.982,1.929,4.684,3.122,7.66,3.122    c2.979,0,5.679-1.193,7.662-3.122l-0.021,0.055c0.688,0.266,1.354,0.597,2.001,0.979C29.093,59.148,17.343,57.654,14.79,57.156z"/><path d="M33.408,41.418c-0.779,0.779-2.049,0.779-2.828,0l-1.414,1.414c0.397,0.397,0.858,0.691,1.351,0.886    c0.104,0.727,0.724,1.286,1.479,1.286s1.374-0.56,1.479-1.286c0.491-0.195,0.952-0.488,1.349-0.886L33.408,41.418z"/><circle cx="37.5" cy="34.504" r="1.5"/><path d="M31.989,40.004c1.654,0,3.001-1.346,3.001-3.005l-0.011-2l-2,0.01l0.011,1.995c0,0.552-0.449,1-1.001,1    c-0.551,0-0.999-0.448-0.999-1.005l-0.011-2l-2,0.01l0.011,1.995C28.99,38.658,30.336,40.004,31.989,40.004z"/></g></g></svg>