<svg xmlns="http://www.w3.org/2000/svg" xmlns:xlink="http://www.w3.org/1999/xlink" version="1.0" x="0px" y="0px" viewBox="0 0 50 62.5" enable-background="new 0 0 50 50" xml:space="preserve"><g><path d="M25,46.2c11.7,0,21.2-9.5,21.2-21.2S36.7,3.8,25,3.8S3.8,13.3,3.8,25S13.3,46.2,25,46.2z M25,6.3   c10.3,0,18.7,8.4,18.7,18.7S35.3,43.7,25,43.7S6.3,35.3,6.3,25S14.7,6.3,25,6.3z"/><path d="M25,33.4c2.2,0,4.3-0.9,5.9-2.5c3.3-3.3,3.3-8.6,0-11.8c-1.6-1.6-3.7-2.5-5.9-2.5c-2.2,0-4.3,0.9-5.9,2.5   c-3.3,3.3-3.3,8.6,0,11.8C20.7,32.5,22.8,33.4,25,33.4z M20.8,20.8c1.1-1.1,2.6-1.7,4.2-1.7s3,0.6,4.2,1.7c2.3,2.3,2.3,6,0,8.3   c-1.1,1.1-2.6,1.7-4.2,1.7s-3-0.6-4.2-1.7C18.6,26.9,18.6,23.1,20.8,20.8z"/><path d="M22.9,14.1c0.4,0,0.7-0.2,1-0.4l2.1-2.5c0.4-0.5,0.4-1.3-0.1-1.8C25.3,9,24.5,9,24,9.6L22,12c-0.4,0.5-0.4,1.3,0.1,1.8   C22.4,14,22.6,14.1,22.9,14.1z"/><path d="M31.2,16.1c0.2,0.4,0.7,0.6,1.1,0.6c0.2,0,0.4-0.1,0.6-0.2c0.6-0.3,0.8-1.1,0.4-1.7L31.1,11c-0.3-0.6-1.1-0.8-1.7-0.4   c-0.6,0.3-0.8,1.1-0.4,1.7L31.2,16.1z"/><path d="M35.9,20.4c0.4,0,0.8-0.2,1-0.5l1.7-2.5c0.4-0.6,0.3-1.3-0.3-1.7c-0.6-0.4-1.3-0.3-1.7,0.3l-1.7,2.5   c-0.4,0.6-0.3,1.3,0.3,1.7C35.4,20.3,35.7,20.4,35.9,20.4z"/><path d="M38.2,23.7l1.5,3.5c0.2,0.5,0.7,0.8,1.2,0.8c0.2,0,0.3,0,0.5-0.1c0.6-0.3,0.9-1,0.7-1.6l-1.5-3.5c-0.3-0.6-1-0.9-1.6-0.7   C38.2,22.3,37.9,23.1,38.2,23.7z"/><path d="M35.6,35c0.2,0.5,0.7,0.9,1.2,0.9c0.1,0,0.2,0,0.4-0.1c0.7-0.2,1-0.9,0.8-1.6l-0.9-2.9c-0.2-0.7-0.9-1-1.6-0.8   c-0.7,0.2-1,0.9-0.8,1.6L35.6,35z"/><path d="M32.6,34l-2.9,0.9c-0.7,0.2-1,0.9-0.8,1.6c0.2,0.5,0.7,0.9,1.2,0.9c0.1,0,0.2,0,0.4-0.1l2.9-0.9c0.7-0.2,1-0.9,0.8-1.6   C33.9,34.2,33.2,33.8,32.6,34z"/><path d="M20.8,34.6l-4.1,2.3c-0.6,0.3-0.8,1.1-0.5,1.7c0.2,0.4,0.7,0.6,1.1,0.6c0.2,0,0.4-0.1,0.6-0.2l4.1-2.3   c0.6-0.3,0.8-1.1,0.5-1.7C22.2,34.4,21.4,34.2,20.8,34.6z"/><path d="M25.8,37.5c-0.5-0.4-1.3-0.3-1.8,0.2c-0.4,0.5-0.3,1.3,0.2,1.8l3.3,2.6c0.2,0.2,0.5,0.3,0.8,0.3c0.4,0,0.7-0.2,1-0.5   c0.4-0.5,0.3-1.3-0.2-1.8L25.8,37.5z"/><path d="M13.6,34v-4.2c0-0.7-0.6-1.2-1.2-1.2s-1.2,0.6-1.2,1.2V34c0,0.7,0.6,1.2,1.2,1.2S13.6,34.7,13.6,34z"/><path d="M14,27.2c0.4,0,0.9-0.2,1.1-0.6c0.3-0.6,0.1-1.4-0.5-1.7l-3.4-1.9c-0.6-0.3-1.4-0.1-1.7,0.5C9.2,24,9.4,24.7,10,25.1   l3.4,1.9C13.6,27.2,13.8,27.2,14,27.2z"/><path d="M10.1,20.4l3.4-2c0.6-0.3,0.8-1.1,0.4-1.7c-0.3-0.6-1.1-0.8-1.7-0.4l-3.4,2C8.2,18.6,8,19.4,8.4,20   c0.2,0.4,0.7,0.6,1.1,0.6C9.6,20.6,9.9,20.6,10.1,20.4z"/><path d="M17.3,16.5c0.2,0.4,0.7,0.6,1.1,0.6c0.2,0,0.4-0.1,0.6-0.2c0.6-0.3,0.8-1.1,0.5-1.7l-2.1-3.8c-0.3-0.6-1.1-0.8-1.7-0.5   c-0.6,0.3-0.8,1.1-0.5,1.7L17.3,16.5z"/></g></svg>