<svg xmlns="http://www.w3.org/2000/svg" viewBox="0 0 64 85" x="0px" y="0px"><g fill="#000000" fill-rule="evenodd"><path d="M15.7015154,17.9927123 C12.5270554,17.8373635 10,15.217866 10,12.0068977 L10,5.99310226 C10,2.68390931 12.6911405,0 16.0000255,0 L47.9999745,0 C51.3130412,0 54,2.68210265 54,5.99310226 L54,12.0068977 C54,15.2159947 51.4691997,17.8370629 48.2984815,17.9926902 L54.9806835,65.7227043 C55.1338297,66.8166056 54.371197,67.8275373 53.2772957,67.9806835 C52.1833944,68.1338297 51.1724627,67.371197 51.0193165,66.2772957 L44.2604951,18 L19.7395049,18 L12.9806835,66.2772957 C12.8275373,67.371197 11.8166056,68.1338297 10.7227043,67.9806835 C9.62880302,67.8275373 8.86617033,66.8166056 9.01931651,65.7227043 L15.7015154,17.9927123 L15.7015154,17.9927123 Z M14,5.99310226 C14,4.89546118 14.8978738,4 16.0000255,4 L47.9999745,4 C49.1055204,4 50,4.89286303 50,5.99310226 L50,12.0068977 C50,13.1045388 49.1021262,14 47.9999745,14 L16.0000255,14 C14.8944796,14 14,13.107137 14,12.0068977 L14,5.99310226 Z"/><path d="M62 64L2 64C.8954305 64 0 64.8954305 0 66 0 67.1045695.8954305 68 2 68L62 68C63.1045695 68 64 67.1045695 64 66 64 64.8954305 63.1045695 64 62 64zM25.0020629 49.9091847C24.9502884 51.0482251 25.8597835 52 27 52L37 52C38.1402165 52 39.0497116 51.0482251 38.9979371 49.9091847L38.0929741 30 42 30C43.1045695 30 44 29.1045695 44 28 44 26.8954305 43.1045695 26 42 26L36 26C34.8597835 26 33.9502884 26.9517749 34.0020629 28.0908153L34.9070259 48 29.0929741 48 29.9979371 28.0908153C30.0497116 26.9517749 29.1402165 26 28 26L22 26C20.8954305 26 20 26.8954305 20 28 20 29.1045695 20.8954305 30 22 30L25.9070259 30 25.0020629 49.9091847z"/><path d="M42.7953181,64.8790393 C41.7928355,59.7524625 37.2842592,56 32,56 C26.7565568,56 22.2724393,59.6955442 21.2265647,64.7700713 C21.0035962,65.8519026 21.699842,66.9096518 22.7816732,67.1326203 C23.8635044,67.3555888 24.9212536,66.659343 25.1442222,65.5775118 C25.8088316,62.3528626 28.6637596,60 32,60 C35.3621734,60 38.2326585,62.3890885 38.8696691,65.6466851 C39.0816486,66.7307231 40.1322784,67.4376662 41.2163165,67.2256867 C42.3003545,67.0137072 43.0072976,65.9630774 42.7953181,64.8790393 Z"/></g></svg>