<svg xmlns="http://www.w3.org/2000/svg" xmlns:xlink="http://www.w3.org/1999/xlink" version="1.1" x="0px" y="0px" viewBox="0 0 20 25" style="enable-background:new 0 0 20 20;" xml:space="preserve"><g><path d="M19.9,1c-0.1-0.5-0.4-0.8-0.9-0.9C10.9-0.8,4.9,3.5,4.6,11.6l-3.8,0.7c-0.8,0.2-1.1,1.1-0.5,1.7l5.7,5.7   c0.6,0.6,1.5,0.3,1.7-0.5l0.8-3.8C16.6,15.1,20.8,9,19.9,1z M18,2c0.1,2.1-0.2,4.1-0.8,5.7c-2.4-0.6-4.3-2.5-4.9-4.9   C13.9,2.2,15.8,1.9,18,2z M6,17l-3-3l1.6-0.3c0,0.2,0,0.5,0.1,0.7c0.1,0.5,0.4,0.8,0.9,0.9c0.3,0,0.5,0.1,0.8,0.1L6,17z M6.6,13.4   C6.4,9.6,7.4,6,10.4,3.8c0.9,2.7,3,4.9,5.8,5.8C14,12.6,10.4,13.6,6.6,13.4z"/><path d="M15.6,4.9C16.3,5.2,17,4.7,17,4c0-0.4-0.3-0.8-0.6-0.9c-0.5-0.2-1.1,0-1.3,0.5C14.9,4.2,15.2,4.7,15.6,4.9z"/></g></svg>