<svg xmlns="http://www.w3.org/2000/svg" xmlns:xlink="http://www.w3.org/1999/xlink" version="1.1" x="0px" y="0px" viewBox="0 0 64 80" enable-background="new 0 0 64 64" xml:space="preserve"><g><g><path d="M31.378,45.78c0.431,0.15,0.876,0.225,1.319,0.225c0.595,0,1.186-0.134,1.737-0.4l-0.87-1.801    c-0.482,0.233-1.024,0.264-1.528,0.088s-0.91-0.538-1.142-1.02l-1.802,0.869C29.558,44.704,30.37,45.429,31.378,45.78z"/><circle cx="36" cy="57" r="1"/><path d="M42.621,44.51c0.952-1.349,1.65-2.883,2.034-4.54H45v-0.099c2.279-0.464,4-2.484,4-4.898c0-1.115-0.38-2.136-1-2.969h3v-2    h-6V17.001c0-4.963-5.832-9-13-9s-13,4.037-13,9v13.003h-6v2h2.998C15.379,32.836,15,33.856,15,34.971    c0,2.526,1.89,4.599,4.326,4.932c0.386,1.709,1.107,3.29,2.094,4.672c-5.614,2.56-10.162,8.116-12.308,15.135l1.913,0.584    C12.881,54.226,16.64,49.359,21.3,46.86l1.578,9.311c0.067,0.396,0.365,0.714,0.755,0.806c0.077,0.019,0.154,0.027,0.23,0.027    c0.314,0,0.615-0.148,0.806-0.408l4.096-5.583l2.263,9.226L32,60l0.988,0.151l1.376-8.961l3.966,5.405    c0.191,0.26,0.492,0.408,0.806,0.408c0.077,0,0.154-0.009,0.23-0.027c0.391-0.092,0.688-0.409,0.755-0.806l1.668-9.844    c5.074,2.347,9.209,7.474,11.192,13.969l1.913-0.584C52.746,52.672,48.212,47.094,42.621,44.51z M29.891,36.134    c0.542,0.537,1.287,0.87,2.108,0.87c0.822,0,1.566-0.333,2.109-0.87c1.687,0.407,2.687,1.778,3.248,2.995    c-4.336-1.627-8.393-0.755-10.75,0.083C27.16,37.975,28.167,36.55,29.891,36.134z M33,34.004c0,0.552-0.449,1-1.001,1    c-0.551,0-0.999-0.448-0.999-1v-2h2V34.004z M31,30.004h-2h-8v-3h22v3h-8h-2H31z M45,37.788v-0.741c0-0.003,0-0.007,0-0.01h0    v-4.88c1.162,0.414,2,1.514,2,2.815S46.162,37.374,45,37.788z M32,10.001c6.065,0,11,3.141,11,7v8.003H21v-8.003    C21,13.142,25.935,10.001,32,10.001z M17,34.971c0-1.302,0.838-2.401,2-2.815v5.631C17.838,37.372,17,36.272,17,34.971z     M21,32.004h8v2c0,0.1,0.02,0.194,0.029,0.292c-3.219,1.018-4.681,4.536-5.016,6.544c-0.063,0.381,0.098,0.764,0.415,0.984    c0.318,0.221,0.733,0.239,1.068,0.048c0.065-0.036,6.577-3.672,13.008,0c0.154,0.088,0.325,0.132,0.496,0.132    c0.201,0,0.4-0.061,0.572-0.18c0.316-0.221,0.478-0.604,0.415-0.984c-0.334-2.008-1.797-5.526-5.016-6.544    C34.98,34.198,35,34.104,35,34.004v-2h8v5.043c-0.005,6.061-4.938,10.99-11,10.99c-6.066,0-11-4.935-11-11V32.004z M32.522,50.011    l-0.748,4.871l-1.21-4.933c0.473,0.052,0.95,0.088,1.436,0.088C32.177,50.037,32.348,50.018,32.522,50.011z M24.455,53.508    l-1.159-6.838c1.236,1.118,2.68,2.01,4.276,2.589L24.455,53.508z M38.545,53.508l-2.929-3.992c1.427-0.415,2.75-1.067,3.93-1.912    L38.545,53.508z"/></g></g></svg>