<svg xmlns="http://www.w3.org/2000/svg" xmlns:xlink="http://www.w3.org/1999/xlink" version="1.0" x="0px" y="0px" viewBox="0 0 50 62.5" enable-background="new 0 0 50 50" xml:space="preserve"><path d="M27,1.7h-3.9c-0.7,0-1.2,0.6-1.2,1.2v3.5c-0.7,0-1.2,0.6-1.2,1.2v8.2c0,2.3-0.9,3.5-1.9,4.8c-1.2,1.5-2.5,3.1-2.5,6.3v17.5  l0,0.3c0,1,0,1.9,0.7,2.6c1,1,2.5,1,8.1,1c5.6,0,7.1,0,8.1-1c0.7-0.7,0.7-1.6,0.7-2.6l0-17.8c0-3.2-1.3-4.9-2.5-6.3  c-1-1.3-1.9-2.4-1.9-4.8V7.6c0-0.6-0.5-1.1-1.1-1.2V2.9C28.3,2.2,27.7,1.7,27,1.7z M24.4,4.2h1.4v2.2h-1.4V4.2z M31.3,41.5h-8.1  V29.1h8.1V41.5z M29.3,22.2c1,1.2,1.8,2.3,1.9,4.4h-9.3c-0.7,0-1.2,0.6-1.2,1.2v14.9c0,0.7,0.6,1.2,1.2,1.2h9.4v0.5l0,0.3  c0,0.3,0,0.6,0,0.8c-0.6,0.2-3,0.2-6.2,0.2c-3.2,0-5.6,0-6.2-0.2c0-0.2,0-0.5,0-0.8l0-17.8c0-2.3,0.9-3.4,1.9-4.7  c1.2-1.5,2.5-3.1,2.5-6.3v-7h3.7v7C26.8,19.1,28.2,20.7,29.3,22.2z"/></svg>