<svg xmlns="http://www.w3.org/2000/svg" xmlns:xlink="http://www.w3.org/1999/xlink" version="1.1" x="0px" y="0px" viewBox="0 0 20 25" style="enable-background:new 0 0 20 20;" xml:space="preserve"><path d="M15.1,7.7l-1.8-1.8C13.1,5.7,13,5.4,13,5.2V2c0.6,0,1-0.4,1-1s-0.4-1-1-1H7C6.4,0,6,0.4,6,1s0.4,1,1,1v3.2  c0,0.3-0.1,0.5-0.3,0.7L4.9,7.7C4.3,8.3,4,9,4,9.8V17c0,1.7,1.3,3,3,3h6c1.7,0,3-1.3,3-3V9.8C16,9,15.7,8.3,15.1,7.7z M6.3,9.1  l1.8-1.8C8.7,6.7,9,6,9,5.2V2h2v3.2c0,0.8,0.3,1.6,0.9,2.1l1.8,1.8C14,9.4,14,9.7,14,10H6C6,9.7,6,9.4,6.3,9.1z M13,18H7  c-0.6,0-1-0.4-1-1v-5h8v5C14,17.6,13.6,18,13,18z"/></svg>