<svg xmlns="http://www.w3.org/2000/svg" xmlns:xlink="http://www.w3.org/1999/xlink" version="1.1" x="0px" y="0px" viewBox="0 0 64 80" enable-background="new 0 0 64 64" xml:space="preserve"><g><g><circle cx="23.028" cy="53.095" r="1"/><path d="M50.025,60.261l1.931-0.523c-0.842-3.106-2.169-5.906-3.858-8.25c3.613-20.032-0.793-29.543-2.247-31.998    c-2.671-4.512-6.52-5.195-7.571-5.298c-4.477-2.426-8.561-3.056-12.135-1.869c-4.908,1.626-6.978,6.074-7.063,6.263    c-0.015,0.032-0.027,0.064-0.039,0.098l-5,15c-0.016,0.049-0.029,0.099-0.037,0.149c-1.588,9.396,1.08,14.772,2.487,16.853    c-1.979,2.496-3.527,5.582-4.467,9.053l1.931,0.523c1.139-4.207,3.226-7.78,5.894-10.288l-1.758,4.69    c-0.188,0.5,0.051,1.059,0.542,1.27l5.011,2.151L21.58,59.12l0.896,1.787l3.989-2c0.348-0.174,0.563-0.534,0.551-0.923    c-0.011-0.39-0.248-0.736-0.605-0.89L20.3,54.471l2.512-6.703c0.533-0.301,1.082-0.562,1.642-0.784    c0.498,0.471,1.037,0.896,1.615,1.268l-0.022,0.006l3.011,12l1.939-0.486L28.391,49.38c1.132,0.396,2.344,0.621,3.609,0.621    c1.536,0,2.999-0.318,4.328-0.89l-3.256,10.609l1.912,0.586l3.912-12.748c0.223-0.18,0.434-0.371,0.642-0.567    c0.553,0.221,1.095,0.478,1.623,0.774l1.745,7.856l-4.513,3.61l1.249,1.562l5-4c0.298-0.238,0.435-0.626,0.352-0.998l-1.403-6.314    C46.52,52.002,48.81,55.773,50.025,60.261z M17.878,49.114c-1.231-2.059-3.25-6.855-1.913-14.873l4.957-14.868    c0.201-0.412,1.991-3.873,5.852-5.152c3.077-1.021,6.688-0.404,10.734,1.828c0.138,0.075,0.298,0.118,0.456,0.124    c0.15,0.005,3.702,0.173,6.167,4.336c2.699,4.559,4.617,14.475,2.285,28.932c-1.621-1.741-3.477-3.114-5.494-4.029    c1.295-1.798,2.069-3.995,2.077-6.373c2.202-0.004,3.992-1.796,3.992-3.999c0-1.845-1.262-3.387-2.963-3.847v-0.177    c0-0.9-0.407-1.699-1.037-2.25l0-2.767c0-3.738-4.564-4.922-4.758-4.97l-0.488,1.939c0.033,0.008,3.246,0.854,3.246,3.03l0,2.017    h-3.963c-1.654,0-3,1.346-3,3v0.988h-4v-0.988c0-1.654-1.346-3-3-3h-4c-0.012,0-0.024,0.004-0.036,0.004v-0.021    c0-2.647,0.631-4.469,1.875-5.416c1.347-1.025,3.131-0.771,3.682-0.661c1.965,1.522,3.79,2.116,5.422,1.754    c2-0.439,2.878-2.157,2.915-2.229c0.033-0.065,0.058-0.134,0.076-0.205l1-4l-1.94-0.484l-0.967,3.868    c-0.14,0.226-0.628,0.903-1.512,1.098c-1.051,0.231-2.406-0.29-3.925-1.505c-0.104-0.082-0.222-0.144-0.35-0.181    c-0.129-0.036-3.18-0.88-5.593,0.94c-1.779,1.342-2.682,3.705-2.682,7.021v0.827c-0.589,0.548-0.964,1.323-0.964,2.189v0.115    c-1.739,0.434-3.037,1.997-3.037,3.869c0,2.206,1.794,3.999,3.999,4v0.001H21c0,2.389,0.774,4.596,2.072,6.401    C21.178,46.26,19.428,47.523,17.878,49.114z M38.442,30.016l-2.415,2.414v-1.414c0-0.552,0.449-1,1-1H38.442z M39.614,30.016    h1.377l0,1.451l-4.422,4.423c-0.317-0.168-0.541-0.491-0.541-0.874v-1.414L39.614,30.016z M44.028,33.338    c0.575,0.352,0.963,0.979,0.963,1.701c0,1.014-0.761,1.845-1.741,1.974c0.478-0.531,0.778-1.228,0.778-1.997V33.338z     M42.99,37.267C42.99,37.267,42.991,37.267,42.99,37.267l0,1.734H42.99L42.99,37.267z M33,36.001c0,0.552-0.449,1-1.001,1    c-0.551,0-0.999-0.448-0.999-1.005l-0.011-1.992h2.4l-0.4,0.002L33,36.001z M20.777,36.979c-1.001-0.108-1.787-0.949-1.787-1.979    c0-0.752,0.422-1.4,1.037-1.742v1.758C20.028,35.77,20.317,36.451,20.777,36.979z M22.99,35.467l0-2.828l2.623-2.623h1.414    c0.383,0,0.706,0.224,0.874,0.54L22.99,35.467z M24.442,30.016l-1.451,1.451v-1.443c0.013-0.001,0.023-0.008,0.037-0.008H24.442z     M23,39.001H22.99v-0.989c0.013,0,0.025,0.004,0.038,0.004h4c0.859,0,1.63-0.368,2.177-0.949c0.432,1.128,1.517,1.935,2.794,1.935    c1.295,0,2.391-0.829,2.811-1.983c0.549,0.608,1.335,0.998,2.218,0.998h3.962v0.985H41c0,4.963-4.038,9-9.001,9    C27.038,48.001,23,43.964,23,39.001z"/><path d="M33.414,41.415c-0.78,0.779-2.048,0.779-2.828,0l-1.414,1.414c0.397,0.397,0.859,0.691,1.351,0.886    c0.105,0.727,0.724,1.286,1.479,1.286s1.374-0.56,1.479-1.286c0.491-0.195,0.952-0.488,1.349-0.886L33.414,41.415z"/></g></g></svg>