<svg xmlns="http://www.w3.org/2000/svg" viewBox="0 0 48 85" x="0px" y="0px"><g fill="#000000" fill-rule="evenodd"><path d="M46,64 L2,64 C0.8954305,64 0,64.8954305 0,66 C0,67.1045695 0.8954305,68 2,68 L46,68 C47.1045695,68 48,67.1045695 48,66 C48,64.8954305 47.1045695,64 46,64 Z"/><path d="M6.12908295,15.8004177 L8.04762588,24.4338609 C8.13013929,24.8051713 8.31682561,25.1452527 8.58578644,25.4142136 L15.9004558,32.7288829 L12.0136988,65.7663175 C11.8846395,66.8633214 12.6693136,67.8572419 13.7663175,67.9863012 C14.8633214,68.1153605 15.8572419,67.3306864 15.9863012,66.2336825 L19.7784991,34 L28.2215009,34 L32.0136988,66.2336825 C32.1427581,67.3306864 33.1366786,68.1153605 34.2336825,67.9863012 C35.3306864,67.8572419 36.1153605,66.8633214 35.9863012,65.7663175 L31.9863012,31.7663175 C31.8678041,30.7590917 31.0141723,30 30,30 L18.8284271,30 L11.8260335,22.9976064 L10.1846571,15.6114127 C10.3407264,15.496691 10.4810315,15.3586247 10.6,15.2 L13.6,11.2 C14.0545265,10.5939647 14.1276384,9.78314087 13.7888544,9.10557281 L9.78885438,1.10557281 C9.05180584,-0.36852427 6.94819416,-0.36852427 6.21114562,1.10557281 L2.21114562,9.10557281 C1.87236159,9.78314087 1.94547353,10.5939647 2.4,11.2 L5.4,15.2 C5.59423643,15.4589819 5.84534803,15.6631631 6.12908295,15.8004177 L6.12908295,15.8004177 Z M9.65835921,9.78885438 L8.00127594,12.0017013 L6.34164079,9.78885438 L8,6.47213595 L9.65835921,9.78885438 Z"/><path d="M21,20.009763 C21,18.8966581 21.8955101,18 23.009763,18 L24.990237,18 C26.1033419,18 27,18.8955101 27,20.009763 L27,21.990237 C27,23.1033419 26.1044899,24 24.990237,24 L23.009763,24 C21.8966581,24 21,23.1044899 21,21.990237 L21,20.009763 Z M17,20.009763 L17,21.990237 C17,25.314777 19.6886655,28 23.009763,28 L24.990237,28 C28.314777,28 31,25.3113345 31,21.990237 L31,20.009763 C31,16.685223 28.3113345,14 24.990237,14 L23.009763,14 C19.685223,14 17,16.6886655 17,20.009763 Z"/><circle cx="34" cy="16" r="2"/><circle cx="24" cy="9" r="2"/><circle cx="14" cy="16" r="2"/><circle cx="18" cy="11" r="2"/><circle cx="30" cy="11" r="2"/><path d="M13.7433258,61.4441176 C12.8840357,62.1381596 12.7500756,63.3973841 13.4441176,64.2566742 C14.1381596,65.1159643 15.3973841,65.2499244 16.2566742,64.5558824 L42.2566742,43.5558824 C43.2108286,42.7852192 43.2528912,41.3451613 42.3453456,40.5201199 L31.3453456,30.5201199 C30.5280304,29.777106 29.2631337,29.8373392 28.5201199,30.6546544 C27.777106,31.4719696 27.8373392,32.7368663 28.6546544,33.4798801 L37.9280862,41.9102727 L13.7433258,61.4441176 Z"/><path d="M18.2194215,49.585248 L31.2194215,39.585248 C32.0949298,38.9117801 32.2587159,37.6560868 31.585248,36.7805785 C30.9117801,35.9050702 29.6560868,35.7412841 28.7805785,36.414752 L15.7805785,46.414752 C14.9050702,47.0882199 14.7412841,48.3439132 15.414752,49.2194215 C16.0882199,50.0949298 17.3439132,50.2587159 18.2194215,49.585248 Z"/></g></svg>