<svg xmlns="http://www.w3.org/2000/svg" viewBox="0 0 68 58.75" x="0px" y="0px"><g fill="#000000" fill-rule="evenodd"><path d="M41.8711062,43 L49.76547,43 L49.0122325,36.2208631 C48.9936145,36.0533006 48.9962583,35.8840564 49.020101,35.7171573 L50,28.8578644 L50,23 C50,22.0822647 50.6245947,21.2822985 51.5149287,21.059715 L55.5149287,20.059715 C55.7659283,19.9969651 56.0267186,19.9835119 56.2828427,20.020101 L63.2828427,21.020101 C64.1627978,21.1458089 64.8541911,21.8372022 64.979899,22.7171573 L65.979899,29.7171573 C66.0119647,29.9416176 66.0056286,30.1698963 65.9611614,30.3922323 L65,35.198039 L65,43 L66,43 C68.6666667,43 68.6666667,47 66,47 L2,47 C-0.666666667,47 -0.666666667,43 2,43 L3.19002488,43 L3.99092984,34.9909503 L3.00821359,24.1810715 L3,24 L3,15 C3,13.8079774 4.03613118,12.8805957 5.22086305,13.0122325 L13.8636292,13.9725399 L17.5149287,13.059715 C18.7772222,12.7441416 20,13.6988577 20,15 L20,24.8578644 L20.979899,31.7171573 C21.0005359,31.8616154 21.0053009,32.0078981 20.994109,32.153393 L20.1597546,43 L25,43 L25,34 L25.0069085,33.833909 L25.9896148,22.0414336 L25.0154442,14.2480695 C24.8518738,12.9395062 25.9773499,11.833602 27.2828427,12.020101 L34.1421356,13 L39,13 C39.9953008,13 40.8391422,13.7318598 40.979899,14.7171573 L41.979899,21.7171573 C42.0050386,21.8931346 42.0066047,22.0716782 41.9845558,22.2480695 L41.0083091,30.0580431 L41.8711062,43 L41.8711062,43 Z M7.99007438,35.1990074 L7.20997512,43 L16.1479377,43 L16.9890527,32.0655048 L16.020101,25.2828427 C16.0067172,25.1891561 16,25.0946377 16,25 L16,17.5615528 L14.4850713,17.940285 C14.2544516,17.9979399 14.0154003,18.014019 13.7791369,17.9877675 L7,17.23453 L7,23.909278 L7.99178641,34.8189285 C8.00328278,34.9453886 8.00270952,35.0726561 7.99007438,35.1990074 Z M56.1049942,24.0353043 L54,24.5615528 L54,29 C54,29.0946377 53.9932828,29.1891561 53.979899,29.2828427 L53.0158066,36.0314893 L53.7900856,43 L61,43 L61,35 C61,34.868296 61.0130094,34.7369141 61.0388386,34.6077677 L61.9716521,29.9437004 L61.232233,24.767767 L56.1049942,24.0353043 Z M33.7171573,16.979899 L29.3093408,16.3502109 L29.9845558,21.7519305 C30.001729,21.8893164 30.0045896,22.0281142 29.9930915,22.166091 L29,34.0831892 L29,43 L37.8622271,43 L37.0044297,30.133038 C36.9959566,30.0059413 36.9996448,29.8783257 37.0154442,29.7519305 L37.9822233,22.0176984 L37.2654092,17 L34,17 C33.9053623,17 33.8108439,16.9932828 33.7171573,16.979899 Z"/><path d="M17.0350746,4.01529443 L26.0882536,4.98854223 C26.245049,5.00539827 26.4032878,5.00365055 26.5596726,4.98333548 L32.2993697,4.23772382 L32.9763338,8.97647218 L32.3484526,12.7437596 L27.2828427,12.020101 C27.1159436,11.9962583 26.9466994,11.9936145 26.7791369,12.0122325 L17.7791369,13.0122325 C17.6901035,13.0221251 17.6018354,13.0379883 17.5149287,13.059715 L14,13.9384472 L11.7129445,13.3666833 L11.0283479,9.94370041 L11.767767,4.76776695 L17.0350746,4.01529443 Z M26.9685107,16.0158066 L33.7171573,16.979899 C34.7926902,17.1335465 35.7941762,16.4004679 35.9727878,15.328798 L36.9727878,9.32879797 C37.0065061,9.12648843 37.0089045,8.92019608 36.979899,8.71715729 L35.979899,1.71715729 C35.825092,0.63350845 34.8278858,-0.124350514 33.7423561,0.0166645235 L26.2797853,0.98608497 L17.2137751,0.0114577698 C17.0485198,-0.00630774604 16.8816943,-0.00340428047 16.7171573,0.0201010127 L9.71715729,1.02010101 C8.83720218,1.14580888 8.14580888,1.83720218 8.02010101,2.71715729 L7.02010101,9.71715729 C6.98803526,9.94161758 6.99437145,10.1698963 7.03883865,10.3922323 L8.03883865,15.3922323 C8.19041568,16.1501174 8.76511121,16.7528306 9.51492875,16.940285 L13.5149287,17.940285 C13.8334087,18.019905 14.1665913,18.019905 14.4850713,17.940285 L18.354564,16.9729118 L26.9685107,16.0158066 Z"/></g></svg>