<svg xmlns="http://www.w3.org/2000/svg" viewBox="0 0 68 58.75" x="0px" y="0px"><path fill="#000000" fill-rule="evenodd" d="M328,441.645934 L314.257219,447.143047 C313.497902,447.446773 313,448.182191 313,449 L313,453 C313,453.740282 313.402199,454.386626 314,454.732436 L314,456 L298,456 C296.895431,456 296,456.895431 296,458 L296,482 C296,483.104569 296.895431,484 298,484 L362,484 C363.104569,484 364,483.104569 364,482 L364,458 C364,456.895431 363.104569,456 362,456 L346,456 L346,454.732436 C346.597801,454.386626 347,453.740282 347,453 L347,449 C347,448.182191 346.502098,447.446773 345.742781,447.143047 L332,441.645934 L332,439 C332,437.895431 331.104569,437 330,437 C328.895431,437 328,437.895431 328,439 L328,441.645934 L328,441.645934 Z M342,455 L342,480 L318,480 L318,455 L342,455 Z M360,466 L360,480 L346,480 L346,466 L360,466 Z M314,466 L314,480 L300,480 L300,466 L314,466 Z M314,460 L314,462 L300,462 L300,460 L314,460 Z M360,460 L360,462 L346,462 L346,460 L360,460 Z M317,451 L317,450.354066 L330,445.154066 L343,450.354066 L343,451 L317,451 Z M338,473 L322,473 C320.895431,473 320,473.895431 320,475 C320,476.104569 320.895431,477 322,477 L338,477 C339.104569,477 340,476.104569 340,475 C340,473.895431 339.104569,473 338,473 Z M339,469 L339,460 C339,458.895431 338.104569,458 337,458 C335.895431,458 335,458.895431 335,460 L335,469 C335,470.104569 335.895431,471 337,471 C338.104569,471 339,470.104569 339,469 Z M325,469 L325,460 C325,458.895431 324.104569,458 323,458 C321.895431,458 321,458.895431 321,460 L321,469 C321,470.104569 321.895431,471 323,471 C324.104569,471 325,470.104569 325,469 Z M332,469 L332,460 C332,458.895431 331.104569,458 330,458 C328.895431,458 328,458.895431 328,460 L328,469 C328,470.104569 328.895431,471 330,471 C331.104569,471 332,470.104569 332,469 Z M358,474 L358,470 C358,468.895431 357.104569,468 356,468 C354.895431,468 354,468.895431 354,470 L354,474 C354,475.104569 354.895431,476 356,476 C357.104569,476 358,475.104569 358,474 Z M352,474 L352,470 C352,468.895431 351.104569,468 350,468 C348.895431,468 348,468.895431 348,470 L348,474 C348,475.104569 348.895431,476 350,476 C351.104569,476 352,475.104569 352,474 Z M312,474 L312,470 C312,468.895431 311.104569,468 310,468 C308.895431,468 308,468.895431 308,470 L308,474 C308,475.104569 308.895431,476 310,476 C311.104569,476 312,475.104569 312,474 Z M306,474 L306,470 C306,468.895431 305.104569,468 304,468 C302.895431,468 302,468.895431 302,470 L302,474 C302,475.104569 302.895431,476 304,476 C305.104569,476 306,475.104569 306,474 Z" transform="translate(-296 -437)"/></svg>