<svg xmlns="http://www.w3.org/2000/svg" xmlns:xlink="http://www.w3.org/1999/xlink" version="1.0" x="0px" y="0px" viewBox="0 0 50 62.5" enable-background="new 0 0 50 50" xml:space="preserve"><path d="M36.7,20.1c0-6.6-4.2-12.9-4.4-13.2c-0.2-0.3-0.6-0.6-1-0.6H18.7c-0.4,0-0.8,0.2-1,0.6c-0.2,0.3-4.4,6.6-4.4,13.2  c0,6.1,5.2,9.1,10.4,9.5v11.6H18c-0.7,0-1.2,0.6-1.2,1.2s0.6,1.2,1.2,1.2H32c0.7,0,1.2-0.6,1.2-1.2s-0.6-1.2-1.2-1.2h-5.7V29.6  C31.5,29.2,36.7,26.1,36.7,20.1z M15.8,20.1c0-4.8,2.6-9.6,3.6-11.3h11.1c1,1.6,3.6,6.5,3.6,11.3c0,5.6-5.8,7.1-9.2,7.1  C21.5,27.2,15.8,25.7,15.8,20.1z"/></svg>