<svg xmlns="http://www.w3.org/2000/svg" xmlns:xlink="http://www.w3.org/1999/xlink" version="1.1" x="0px" y="0px" viewBox="0 0 20 25" style="enable-background:new 0 0 20 20;" xml:space="preserve"><path d="M16.3,6.5L15,0.8C14.9,0.3,14.5,0,14,0H6C5.5,0,5.1,0.3,5,0.8L3.7,6.5C3.5,7.3,3.5,8.3,3.6,8.8C3.9,11.7,6,13.6,9,13.9V18H6  c-0.6,0-1,0.4-1,1s0.4,1,1,1h8c0.6,0,1-0.4,1-1s-0.4-1-1-1h-3v-4.1c3-0.4,5.1-2.3,5.4-5.1C16.5,8.1,16.4,7.1,16.3,6.5z M6.8,2h6.4  c1.5,6.8,0.9,4.2,1.1,5H5.7C5.8,6.3,5.3,8.7,6.8,2z M10,12c-2.3,0-3.9-1.1-4.4-3h8.7C13.9,10.9,12.3,12,10,12z"/></svg>