<svg xmlns="http://www.w3.org/2000/svg" xmlns:xlink="http://www.w3.org/1999/xlink" version="1.1" x="0px" y="0px" viewBox="0 0 64 80" enable-background="new 0 0 64 64" xml:space="preserve"><g><g><path d="M51.946,59.746c-0.881-3.254-2.3-6.166-4.104-8.575l0.122,0.023c3.097-16.515,0.667-28.335-2.354-33.438    c-2.671-4.512-6.52-5.195-7.571-5.298c-4.477-2.425-8.558-3.056-12.136-1.869c-4.907,1.626-6.977,6.074-7.062,6.263    c-0.015,0.032-0.027,0.064-0.038,0.098l-5,15c-0.017,0.049-0.029,0.099-0.038,0.149c-2.06,12.185,3.049,17.636,3.268,17.862    l0.428-0.411c-2.45,2.668-4.354,6.175-5.442,10.197l0.965,0.262l0.936,0.354c1.047-2.767,4.299-4.853,7.564-4.853    c3.021,0,5.413,1.768,6.563,4.85c0.118,0.318,0.392,0.556,0.724,0.628c0.339,0.069,0.681-0.03,0.92-0.271l2.293-2.293l2.293,2.293    c0.189,0.189,0.444,0.293,0.707,0.293c0.071,0,0.143-0.008,0.213-0.023c0.333-0.072,0.605-0.309,0.725-0.628    c1.146-3.081,3.537-4.849,6.562-4.849c3.266,0,6.519,2.086,7.564,4.852l0.936-0.354L51.946,59.746z M15.724,32.508L20.68,17.64    c0.201-0.412,1.991-3.873,5.853-5.152c3.076-1.022,6.688-0.404,10.733,1.828c0.138,0.075,0.299,0.118,0.456,0.124    c0.15,0.005,3.702,0.173,6.167,4.336c2.752,4.648,4.942,15.369,2.371,30.521c-1.585-1.666-3.386-2.986-5.34-3.874    c1.304-1.808,2.08-4.018,2.08-6.411c0-0.068-0.007-0.134-0.021-0.198v-0.788c2.097-0.122,3.77-1.85,3.77-3.977    s-1.672-3.854-3.769-3.977V27.01h0.001v-2H42.98l0.001-5l0,0v-2h-6c-1.941,0-3.622-2.489-4.106-3.449    c-0.17-0.337-0.516-0.55-0.894-0.55H31.98c-0.379,0-0.725,0.214-0.894,0.552c-0.018,0.034-1.788,3.447-4.105,3.447h-1    c-0.55,0-0.996,0.447-1,0.996c0,0.057-0.105,5.694-5.707,11.297l0.067,0.067c-1.389,0.628-2.36,2.02-2.36,3.64    c0,2.205,1.793,3.999,3.998,4v1c0,0.07,0.008,0.14,0.022,0.206c0.042,2.309,0.806,4.441,2.064,6.194    c-1.661,0.752-3.213,1.815-4.616,3.139C18.206,48.276,13.922,43.307,15.724,32.508z M23,39.012c0-0.067-0.007-0.134-0.021-0.197    v-9.729c0.533-0.707,0.991-1.4,1.392-2.076H40.98l-0.001,12.002c0,0.064,0.007,0.128,0.019,0.188    c-0.101,4.876-4.099,8.812-8.999,8.812C27.037,48.012,23,43.975,23,39.012z M20.979,36.01c-1.102-0.001-1.998-0.898-1.998-2    s0.896-1.999,1.998-2V36.01z M25.42,25.01c0.981-2.152,1.35-3.949,1.483-5h0.078c2.288,0,4.022-1.787,5-3.123    c0.978,1.336,2.712,3.123,5,3.123h4l-0.001,5H25.42z M42.98,32.072c0.992,0.116,1.769,0.953,1.769,1.977s-0.776,1.86-1.77,1.977    L42.98,32.072z M34.666,58.28l-1.978-1.978c-0.391-0.391-1.023-0.391-1.414,0l-1.979,1.979c-1.62-3.015-4.453-4.771-7.814-4.771    c-1.952,0-3.866,0.585-5.487,1.574c2.056-3.843,5.021-6.728,8.454-8.092c1.972,1.867,4.627,3.02,7.551,3.02    c2.917,0,5.565-1.149,7.536-3.009c3.425,1.368,6.382,4.248,8.433,8.081c-1.621-0.989-3.534-1.574-5.486-1.574    C39.115,53.51,36.282,55.267,34.666,58.28z"/><path d="M33.414,41.426c-0.779,0.779-2.049,0.779-2.828,0l-1.414,1.414c0.396,0.397,0.858,0.69,1.35,0.886    c0.104,0.727,0.724,1.286,1.479,1.286s1.374-0.56,1.479-1.286c0.491-0.195,0.953-0.488,1.35-0.886L33.414,41.426z"/><circle cx="37.481" cy="33.51" r="1.5"/><circle cx="26.481" cy="33.512" r="1.5"/><path d="M32.005,39.012c1.654,0,3-1.346,3-3.005l-0.01-2l-2,0.01l0.01,1.995c0,0.552-0.448,1-1,1s-1-0.448-1-1.005l-0.01-2    l-2,0.01l0.01,1.995C29.005,37.666,30.351,39.012,32.005,39.012z"/><path d="M39.211,30.649l1.541-1.275c-0.729-0.879-1.712-1.362-2.771-1.362s-2.042,0.483-2.771,1.362l1.541,1.275    C37.432,29.827,38.531,29.827,39.211,30.649z"/><path d="M27.211,30.649l1.541-1.275c-0.729-0.879-1.712-1.362-2.771-1.362s-2.042,0.483-2.771,1.362l1.541,1.275    C25.432,29.827,26.531,29.827,27.211,30.649z"/><polygon points="32.689,21.188 31.981,19.01 31.273,21.188 28.981,21.188 30.836,22.536 30.127,24.715 31.981,23.369     33.836,24.715 33.127,22.536 34.981,21.188   "/></g></g></svg>